{
    "asset" : {
        "generator" : "Khronos glTF Blender I/O v1.6.16",
        "version" : "2.0"
    },
    "scene" : 0,
    "scenes" : [
        {
            "name" : "Scene",
            "nodes" : [
                0
            ]
        }
    ],
    "nodes" : [
        {
            "mesh" : 0,
            "name" : "TrafficLight",
            "rotation" : [
                0.7071068286895752,
                0,
                0,
                0.7071067094802856
            ]
        }
    ],
    "materials" : [
        {
            "doubleSided" : true,
            "name" : "None",
            "pbrMetallicRoughness" : {
                "baseColorTexture" : {
                    "index" : 0
                },
                "metallicFactor" : 0
            }
        },
        {
            "doubleSided" : true,
            "name" : "None_Green.png",
            "pbrMetallicRoughness" : {
                "baseColorTexture" : {
                    "index" : 1
                },
                "metallicFactor" : 0
            }
        },
        {
            "doubleSided" : true,
            "name" : "None_Orange.png",
            "pbrMetallicRoughness" : {
                "baseColorTexture" : {
                    "index" : 2
                },
                "metallicFactor" : 0
            }
        },
        {
            "doubleSided" : true,
            "name" : "None_Red.png",
            "pbrMetallicRoughness" : {
                "baseColorTexture" : {
                    "index" : 3
                },
                "metallicFactor" : 0
            }
        },
        {
            "doubleSided" : true,
            "name" : "None_Yellow.png",
            "pbrMetallicRoughness" : {
                "baseColorTexture" : {
                    "index" : 4
                },
                "metallicFactor" : 0
            }
        }
    ],
    "meshes" : [
        {
            "name" : "TrafficLight",
            "primitives" : [
                {
                    "attributes" : {
                        "POSITION" : 0,
                        "NORMAL" : 1,
                        "TEXCOORD_0" : 2
                    },
                    "indices" : 3,
                    "material" : 0
                },
                {
                    "attributes" : {
                        "POSITION" : 4,
                        "NORMAL" : 5,
                        "TEXCOORD_0" : 6
                    },
                    "indices" : 7,
                    "material" : 1
                },
                {
                    "attributes" : {
                        "POSITION" : 8,
                        "NORMAL" : 9,
                        "TEXCOORD_0" : 10
                    },
                    "indices" : 11,
                    "material" : 2
                },
                {
                    "attributes" : {
                        "POSITION" : 12,
                        "NORMAL" : 13,
                        "TEXCOORD_0" : 14
                    },
                    "indices" : 15,
                    "material" : 3
                },
                {
                    "attributes" : {
                        "POSITION" : 16,
                        "NORMAL" : 17,
                        "TEXCOORD_0" : 18
                    },
                    "indices" : 19,
                    "material" : 4
                }
            ]
        }
    ],
    "textures" : [
        {
            "sampler" : 0,
            "source" : 0
        },
        {
            "sampler" : 0,
            "source" : 1
        },
        {
            "sampler" : 0,
            "source" : 2
        },
        {
            "sampler" : 0,
            "source" : 3
        },
        {
            "sampler" : 0,
            "source" : 4
        }
    ],
    "images" : [
        {
            "bufferView" : 4,
            "mimeType" : "image/png",
            "name" : "Black"
        },
        {
            "bufferView" : 9,
            "mimeType" : "image/png",
            "name" : "Green"
        },
        {
            "bufferView" : 14,
            "mimeType" : "image/png",
            "name" : "Orange"
        },
        {
            "bufferView" : 19,
            "mimeType" : "image/png",
            "name" : "Red"
        },
        {
            "bufferView" : 24,
            "mimeType" : "image/png",
            "name" : "Yellow"
        }
    ],
    "accessors" : [
        {
            "bufferView" : 0,
            "componentType" : 5126,
            "count" : 303,
            "max" : [
                10,
                13.512500762939453,
                0
            ],
            "min" : [
                -10,
                -10,
                -64.38981628417969
            ],
            "type" : "VEC3"
        },
        {
            "bufferView" : 1,
            "componentType" : 5126,
            "count" : 303,
            "type" : "VEC3"
        },
        {
            "bufferView" : 2,
            "componentType" : 5126,
            "count" : 303,
            "type" : "VEC2"
        },
        {
            "bufferView" : 3,
            "componentType" : 5123,
            "count" : 528,
            "type" : "SCALAR"
        },
        {
            "bufferView" : 5,
            "componentType" : 5126,
            "count" : 72,
            "max" : [
                3.90625,
                11.512500762939453,
                -29.75037384033203
            ],
            "min" : [
                -3.90625,
                9,
                -37.56287384033203
            ],
            "type" : "VEC3"
        },
        {
            "bufferView" : 6,
            "componentType" : 5126,
            "count" : 72,
            "type" : "VEC3"
        },
        {
            "bufferView" : 7,
            "componentType" : 5126,
            "count" : 72,
            "type" : "VEC2"
        },
        {
            "bufferView" : 8,
            "componentType" : 5123,
            "count" : 72,
            "type" : "SCALAR"
        },
        {
            "bufferView" : 10,
            "componentType" : 5126,
            "count" : 66,
            "max" : [
                3.90625,
                11.512500762939453,
                -39.75037384033203
            ],
            "min" : [
                -3.90625,
                9,
                -47.56287384033203
            ],
            "type" : "VEC3"
        },
        {
            "bufferView" : 11,
            "componentType" : 5126,
            "count" : 66,
            "type" : "VEC3"
        },
        {
            "bufferView" : 12,
            "componentType" : 5126,
            "count" : 66,
            "type" : "VEC2"
        },
        {
            "bufferView" : 13,
            "componentType" : 5123,
            "count" : 72,
            "type" : "SCALAR"
        },
        {
            "bufferView" : 15,
            "componentType" : 5126,
            "count" : 68,
            "max" : [
                3.90625,
                11.512500762939453,
                -49.75037384033203
            ],
            "min" : [
                -3.90625,
                9,
                -57.56287384033203
            ],
            "type" : "VEC3"
        },
        {
            "bufferView" : 16,
            "componentType" : 5126,
            "count" : 68,
            "type" : "VEC3"
        },
        {
            "bufferView" : 17,
            "componentType" : 5126,
            "count" : 68,
            "type" : "VEC2"
        },
        {
            "bufferView" : 18,
            "componentType" : 5123,
            "count" : 72,
            "type" : "SCALAR"
        },
        {
            "bufferView" : 20,
            "componentType" : 5126,
            "count" : 108,
            "max" : [
                9,
                14,
                -2
            ],
            "min" : [
                -9,
                -9,
                -63.75037384033203
            ],
            "type" : "VEC3"
        },
        {
            "bufferView" : 21,
            "componentType" : 5126,
            "count" : 108,
            "type" : "VEC3"
        },
        {
            "bufferView" : 22,
            "componentType" : 5126,
            "count" : 108,
            "type" : "VEC2"
        },
        {
            "bufferView" : 23,
            "componentType" : 5123,
            "count" : 174,
            "type" : "SCALAR"
        }
    ],
    "bufferViews" : [
        {
            "buffer" : 0,
            "byteLength" : 3636,
            "byteOffset" : 0
        },
        {
            "buffer" : 0,
            "byteLength" : 3636,
            "byteOffset" : 3636
        },
        {
            "buffer" : 0,
            "byteLength" : 2424,
            "byteOffset" : 7272
        },
        {
            "buffer" : 0,
            "byteLength" : 1056,
            "byteOffset" : 9696
        },
        {
            "buffer" : 0,
            "byteLength" : 893,
            "byteOffset" : 10752
        },
        {
            "buffer" : 0,
            "byteLength" : 864,
            "byteOffset" : 11648
        },
        {
            "buffer" : 0,
            "byteLength" : 864,
            "byteOffset" : 12512
        },
        {
            "buffer" : 0,
            "byteLength" : 576,
            "byteOffset" : 13376
        },
        {
            "buffer" : 0,
            "byteLength" : 144,
            "byteOffset" : 13952
        },
        {
            "buffer" : 0,
            "byteLength" : 987,
            "byteOffset" : 14096
        },
        {
            "buffer" : 0,
            "byteLength" : 792,
            "byteOffset" : 15084
        },
        {
            "buffer" : 0,
            "byteLength" : 792,
            "byteOffset" : 15876
        },
        {
            "buffer" : 0,
            "byteLength" : 528,
            "byteOffset" : 16668
        },
        {
            "buffer" : 0,
            "byteLength" : 144,
            "byteOffset" : 17196
        },
        {
            "buffer" : 0,
            "byteLength" : 1006,
            "byteOffset" : 17340
        },
        {
            "buffer" : 0,
            "byteLength" : 816,
            "byteOffset" : 18348
        },
        {
            "buffer" : 0,
            "byteLength" : 816,
            "byteOffset" : 19164
        },
        {
            "buffer" : 0,
            "byteLength" : 544,
            "byteOffset" : 19980
        },
        {
            "buffer" : 0,
            "byteLength" : 144,
            "byteOffset" : 20524
        },
        {
            "buffer" : 0,
            "byteLength" : 966,
            "byteOffset" : 20668
        },
        {
            "buffer" : 0,
            "byteLength" : 1296,
            "byteOffset" : 21636
        },
        {
            "buffer" : 0,
            "byteLength" : 1296,
            "byteOffset" : 22932
        },
        {
            "buffer" : 0,
            "byteLength" : 864,
            "byteOffset" : 24228
        },
        {
            "buffer" : 0,
            "byteLength" : 348,
            "byteOffset" : 25092
        },
        {
            "buffer" : 0,
            "byteLength" : 985,
            "byteOffset" : 25440
        }
    ],
    "samplers" : [
        {
            "magFilter" : 9729,
            "minFilter" : 9987
        }
    ],
    "buffers" : [
        {
            "byteLength" : 26428,
            "uri" : "data:application/octet-stream;base64,"
        }
    ]
}
